<?xml version="1.0" encoding="UTF-8" standalone="no"?>
<!DOCTYPE svg PUBLIC "-//W3C//DTD SVG 1.1//EN"
 "http://www.w3.org/Graphics/SVG/1.1/DTD/svg11.dtd">
<!-- Generated by graphviz version 2.43.0 (0)
 -->
<!-- Title: G Pages: 1 -->
<svg width="320pt" height="254pt"
 viewBox="0.00 0.00 320.00 254.00" xmlns="http://www.w3.org/2000/svg" xmlns:xlink="http://www.w3.org/1999/xlink">
<g id="graph0" class="graph" transform="scale(1 1) rotate(0) translate(4 250)">
<title>G</title>
<polygon fill="white" stroke="transparent" points="-4,4 -4,-250 316,-250 316,4 -4,4"/>
<!-- TA&#45;BEHAVIOURS -->
<g id="node1" class="node">
<title>TA&#45;BEHAVIOURS</title>
<polygon fill="none" stroke="black" points="312,-246 0,-246 0,-178 312,-178 312,-246"/>
<text text-anchor="middle" x="156" y="-230.8" font-family="Open Sans" font-size="14.00">TA&#45;BEHAVIOURS: Expected or required</text>
<text text-anchor="middle" x="156" y="-215.8" font-family="Open Sans" font-size="14.00">behaviours for JSON&#45;Library are identified,</text>
<text text-anchor="middle" x="156" y="-200.8" font-family="Open Sans" font-size="14.00">specified, verified and validated</text>
<text text-anchor="middle" x="156" y="-185.8" font-family="Open Sans" font-size="14.00">based on analysis. </text>
</g>
<!-- JLEX&#45;01 -->
<g id="node2" class="node">
<title>JLEX&#45;01</title>
<polygon fill="none" stroke="black" points="299.5,-142 12.5,-142 12.5,-89 299.5,-89 299.5,-142"/>
<text text-anchor="middle" x="156" y="-126.8" font-family="Open Sans" font-size="14.00">JLEX&#45;01: The JSON&#45;Library provides</text>
<text text-anchor="middle" x="156" y="-111.8" font-family="Open Sans" font-size="14.00">a service to check the well&#45;formedness</text>
<text text-anchor="middle" x="156" y="-96.8" font-family="Open Sans" font-size="14.00">of JSON data. </text>
</g>
<!-- TA&#45;BEHAVIOURS&#45;&gt;JLEX&#45;01 -->
<g id="edge1" class="edge">
<title>TA&#45;BEHAVIOURS&#45;&gt;JLEX&#45;01</title>
<path fill="none" stroke="black" d="M156,-177.95C156,-169.72 156,-160.85 156,-152.48"/>
<polygon fill="black" stroke="black" points="159.5,-152.24 156,-142.24 152.5,-152.24 159.5,-152.24"/>
</g>
<!-- WFJ&#45;01 -->
<g id="node3" class="node">
<title>WFJ&#45;01</title>
<polygon fill="none" stroke="black" points="299.5,-53 12.5,-53 12.5,0 299.5,0 299.5,-53"/>
<text text-anchor="middle" x="156" y="-37.8" font-family="Open Sans" font-size="14.00">WFJ&#45;01: The service checks for the</text>
<text text-anchor="middle" x="156" y="-22.8" font-family="Open Sans" font-size="14.00">four primitive types (strings, numbers,</text>
<text text-anchor="middle" x="156" y="-7.8" font-family="Open Sans" font-size="14.00">booleans, null). </text>
</g>
<!-- JLEX&#45;01&#45;&gt;WFJ&#45;01 -->
<g id="edge2" class="edge">
<title>JLEX&#45;01&#45;&gt;WFJ&#45;01</title>
<path fill="none" stroke="black" d="M156,-88.87C156,-80.89 156,-71.93 156,-63.38"/>
<polygon fill="black" stroke="black" points="159.5,-63.25 156,-53.25 152.5,-63.25 159.5,-63.25"/>
</g>
</g>
</svg>
