<?xml version="1.0" encoding="UTF-8" standalone="no"?>
<!DOCTYPE svg PUBLIC "-//W3C//DTD SVG 1.1//EN"
 "http://www.w3.org/Graphics/SVG/1.1/DTD/svg11.dtd">
<!-- Generated by graphviz version 2.43.0 (0)
 -->
<!-- Title: G Pages: 1 -->
<svg width="560pt" height="254pt"
 viewBox="0.00 0.00 559.50 254.00" xmlns="http://www.w3.org/2000/svg" xmlns:xlink="http://www.w3.org/1999/xlink">
<g id="graph0" class="graph" transform="scale(1 1) rotate(0) translate(4 250)">
<title>G</title>
<polygon fill="white" stroke="transparent" points="-4,4 -4,-250 555.5,-250 555.5,4 -4,4"/>
<!-- JLEX&#45;01 -->
<g id="node1" class="node">
<title>JLEX&#45;01</title>
<polygon fill="none" stroke="black" points="429,-142 142,-142 142,-89 429,-89 429,-142"/>
<text text-anchor="middle" x="285.5" y="-126.8" font-family="Open Sans" font-size="14.00">JLEX&#45;01: The JSON&#45;Library provides</text>
<text text-anchor="middle" x="285.5" y="-111.8" font-family="Open Sans" font-size="14.00">a service to check the well&#45;formedness</text>
<text text-anchor="middle" x="285.5" y="-96.8" font-family="Open Sans" font-size="14.00">of JSON data. </text>
</g>
<!-- WFJ&#45;01 -->
<g id="node3" class="node">
<title>WFJ&#45;01</title>
<polygon fill="none" stroke="black" points="287,-53 0,-53 0,0 287,0 287,-53"/>
<text text-anchor="middle" x="143.5" y="-37.8" font-family="Open Sans" font-size="14.00">WFJ&#45;01: The service checks for the</text>
<text text-anchor="middle" x="143.5" y="-22.8" font-family="Open Sans" font-size="14.00">four primitive types (strings, numbers,</text>
<text text-anchor="middle" x="143.5" y="-7.8" font-family="Open Sans" font-size="14.00">booleans, null). </text>
</g>
<!-- JLEX&#45;01&#45;&gt;WFJ&#45;01 -->
<g id="edge1" class="edge">
<title>JLEX&#45;01&#45;&gt;WFJ&#45;01</title>
<path fill="none" stroke="black" d="M243.66,-88.87C228.2,-79.39 210.51,-68.55 194.33,-58.64"/>
<polygon fill="black" stroke="black" points="195.88,-55.49 185.53,-53.25 192.23,-61.46 195.88,-55.49"/>
</g>
<!-- WFJ&#45;02 -->
<g id="node4" class="node">
<title>WFJ&#45;02</title>
<polygon fill="none" stroke="black" points="551.5,-45.5 305.5,-45.5 305.5,-7.5 551.5,-7.5 551.5,-45.5"/>
<text text-anchor="middle" x="428.5" y="-30.3" font-family="Open Sans" font-size="14.00">WFJ&#45;02: Test suites for JSON data</text>
<text text-anchor="middle" x="428.5" y="-15.3" font-family="Open Sans" font-size="14.00">are executed. </text>
</g>
<!-- JLEX&#45;01&#45;&gt;WFJ&#45;02 -->
<g id="edge2" class="edge">
<title>JLEX&#45;01&#45;&gt;WFJ&#45;02</title>
<path fill="none" stroke="black" d="M327.63,-88.87C347.49,-76.78 371.01,-62.47 390.34,-50.71"/>
<polygon fill="black" stroke="black" points="392.18,-53.69 398.9,-45.51 388.54,-47.71 392.18,-53.69"/>
</g>
<!-- TA&#45;BEHAVIOURS -->
<g id="node2" class="node">
<title>TA&#45;BEHAVIOURS</title>
<polygon fill="none" stroke="black" points="441.5,-246 129.5,-246 129.5,-178 441.5,-178 441.5,-246"/>
<text text-anchor="middle" x="285.5" y="-230.8" font-family="Open Sans" font-size="14.00">TA&#45;BEHAVIOURS: Expected or required</text>
<text text-anchor="middle" x="285.5" y="-215.8" font-family="Open Sans" font-size="14.00">behaviours for JSON&#45;Library are identified,</text>
<text text-anchor="middle" x="285.5" y="-200.8" font-family="Open Sans" font-size="14.00">specified, verified and validated</text>
<text text-anchor="middle" x="285.5" y="-185.8" font-family="Open Sans" font-size="14.00">based on analysis. </text>
</g>
<!-- TA&#45;BEHAVIOURS&#45;&gt;JLEX&#45;01 -->
<g id="edge3" class="edge">
<title>TA&#45;BEHAVIOURS&#45;&gt;JLEX&#45;01</title>
<path fill="none" stroke="black" d="M285.5,-177.95C285.5,-169.72 285.5,-160.85 285.5,-152.48"/>
<polygon fill="black" stroke="black" points="289,-152.24 285.5,-142.24 282,-152.24 289,-152.24"/>
</g>
</g>
</svg>
